#!OML:ASF C:\Vicon Data\Big\jianyuan-13\jianyuan\Session 1\Capture.male.ASF
:FULLY-SPECIFIED
:DEGREES
14
root -7.977300 17.301567 -22.524165 6.460671 12.727578 0.618329
lowerback -13.957732 -2.670085 -5.542323 
upperback 1.248308 -2.672786 0.246752 
thorax 9.486263 -1.591338 2.806637 
lowerneck -8.737387 -2.610125 4.617242 
upperneck 6.145089 -3.839797 -2.682123 
head 3.408774 -1.907008 -1.922896 
rclavicle 0.000000 0.000000 
rhumerus -44.002082 -26.385344 -71.549825 
rradius 32.911214 
rwrist 30.228696 
rhand -19.515661 -19.023702 
rfingers 0.000000 
rthumb 6.807368 -48.894220 
lclavicle 0.000000 0.000000 
lhumerus -46.432731 40.570413 62.084004 
lradius 23.301315 
lwrist -65.142539 
lhand -19.167757 0.048169 
lfingers 0.000000 
lthumb 7.143206 29.907582 
rfemur -34.446737 2.466442 18.808610 
rtibia 27.099806 
rfoot -3.597587 -10.889724 
rtoes -25.073970 
lfemur 8.854222 -4.597843 -21.185638 
ltibia 15.513140 
lfoot -10.108302 -7.152880 
ltoes -37.822718 
15
root -7.996738 17.320609 -22.413360 6.595052 12.839127 0.577924
lowerback -14.080170 -2.739348 -5.450633 
upperback 1.258022 -2.772947 0.246476 
thorax 9.572098 -1.636350 2.727071 
lowerneck -8.710021 -2.539234 4.643005 
upperneck 6.011900 -3.749563 -2.644828 
head 3.361198 -1.861214 -1.906529 
rclavicle 0.000000 0.000000 
rhumerus -43.941022 -26.064331 -71.957962 
rradius 33.283971 
rwrist 29.863362 
rhand -19.426232 -18.992519 
rfingers 0.000000 
rthumb 6.893686 -48.860307 
lclavicle 0.000000 0.000000 
lhumerus -45.732828 40.001925 62.868085 
lradius 23.436785 
lwrist -64.555908 
lhand -19.211746 -0.214746 
lfingers 0.000000 
lthumb 7.100779 29.646175 
rfemur -34.272269 2.247686 19.136414 
rtibia 27.194255 
rfoot -3.822919 -10.720450 
rtoes -25.433095 
lfemur 8.416682 -4.619580 -20.896954 
ltibia 16.527792 
lfoot -9.350677 -7.195703 
ltoes -38.570939 
16
root -8.016717 17.339330 -22.302425 6.617651 12.860734 0.523157
lowerback -14.067277 -2.762902 -5.366421 
upperback 1.252921 -2.820381 0.257146 
thorax 9.559455 -1.654532 2.680797 
lowerneck -8.573951 -2.491609 4.714765 
upperneck 5.843296 -3.684312 -2.696249 
head 3.277489 -1.830614 -1.925643 
rclavicle 0.000000 0.000000 
rhumerus -43.955923 -25.612267 -72.377089 
rradius 33.637718 
rwrist 29.440461 
rhand -19.438531 -18.968134 
rfingers 0.000000 
rthumb 6.881804 -48.836284 
lclavicle 0.000000 0.000000 
lhumerus -45.201207 39.538897 63.488491 
lradius 23.584388 
lwrist -64.399102 
lhand -19.305280 -0.294922 
lfingers 0.000000 
lthumb 7.010459 29.569014 
rfemur -33.929695 2.207255 19.467276 
rtibia 27.218932 
rfoot -4.084955 -10.624842 
rtoes -25.760957 
lfemur 8.066680 -4.516790 -20.626883 
ltibia 17.622488 
lfoot -8.587393 -7.114430 
ltoes -39.245451 
17
root -8.033721 17.354987 -22.192674 6.710865 12.783742 0.586834
lowerback -14.151528 -2.734372 -5.359899 
upperback 1.240965 -2.777902 0.236914 
thorax 9.589228 -1.633919 2.662263 
lowerneck -8.546376 -2.454722 4.719807 
upperneck 5.794963 -3.633330 -2.708913 
head 3.257412 -1.806101 -1.926410 
rclavicle 0.000000 0.000000 
rhumerus -43.980443 -25.176769 -72.764378 
rradius 34.062084 
rwrist 28.922297 
rhand -19.476284 -19.149234 
rfingers 0.000000 
rthumb 6.845402 -49.018562 
lclavicle 0.000000 0.000000 
lhumerus -44.766041 39.427803 63.865397 
lradius 23.604766 
lwrist -64.422640 
lhand -19.232397 -0.214425 
lfingers 0.000000 
lthumb 7.080804 29.647122 
rfemur -33.639882 2.265607 19.629122 
rtibia 27.231287 
rfoot -4.411423 -10.549135 
rtoes -25.642757 
lfemur 7.587174 -4.189984 -20.483963 
ltibia 18.906622 
lfoot -7.833525 -7.104596 
ltoes -39.975554 
18
root -8.057058 17.376656 -22.092986 6.869268 12.769667 0.517774
lowerback -14.181570 -2.698115 -5.231449 
upperback 1.183868 -2.753841 0.248948 
thorax 9.534770 -1.614536 2.608694 
lowerneck -8.576036 -2.449391 4.647302 
upperneck 5.779105 -3.623642 -2.647065 
head 3.259823 -1.800621 -1.892619 
rclavicle 0.000000 0.000000 
rhumerus -44.006239 -24.802848 -73.138372 
rradius 34.448377 
rwrist 28.275894 
rhand -19.496056 -19.155524 
rfingers 0.000000 
rthumb 6.826299 -49.025484 
lclavicle 0.000000 0.000000 
lhumerus -44.331852 39.409437 64.180396 
lradius 23.576393 
lwrist -64.414736 
lhand -19.577032 -0.088031 
lfingers 0.000000 
lthumb 6.748138 29.784391 
rfemur -33.520083 2.330813 19.937219 
rtibia 27.318568 
rfoot -4.751626 -10.507236 
rtoes -25.496520 
lfemur 6.826774 -3.741405 -20.105382 
ltibia 20.295150 
lfoot -6.860750 -7.170261 
ltoes -40.709062 
19
root -8.070455 17.393379 -21.983556 6.990899 12.547182 0.566029
lowerback -14.294450 -2.623331 -5.202028 
upperback 1.130079 -2.659261 0.289686 
thorax 9.532107 -1.568479 2.655374 
lowerneck -8.420096 -2.452878 4.361269 
upperneck 5.685044 -3.595301 -2.551491 
head 3.203306 -1.789608 -1.801548 
rclavicle 0.000000 0.000000 
rhumerus -44.135878 -24.727304 -73.099501 
rradius 34.688777 
rwrist 28.289208 
rhand -19.564185 -18.942123 
rfingers 0.000000 
rthumb 6.760566 -48.814235 
lclavicle 0.000000 0.000000 
lhumerus -44.171135 39.504224 64.410066 
lradius 23.726219 
lwrist -64.731043 
lhand -19.733545 -0.252329 
lfingers 0.000000 
lthumb 6.597081 29.624938 
rfemur -33.330080 2.297531 20.137122 
rtibia 27.463787 
rfoot -5.115585 -10.165392 
rtoes -25.344255 
lfemur 6.229097 -3.228399 -19.963312 
ltibia 21.712421 
lfoot -5.928593 -7.106286 
ltoes -40.075283 
20
root -8.081238 17.412626 -21.877937 7.028843 12.247460 0.564277
lowerback -14.400449 -2.464102 -4.946299 
upperback 1.163864 -2.473403 0.156890 
thorax 9.594018 -1.464135 2.406312 
lowerneck -8.306343 -2.460336 4.427291 
upperneck 5.511717 -3.618206 -2.418777 
head 3.121661 -1.795684 -1.763322 
rclavicle 0.000000 0.000000 
rhumerus -44.164753 -24.617651 -73.514379 
rradius 34.973996 
rwrist 28.065914 
rhand -19.546558 -18.922551 
rfingers 0.000000 
rthumb 6.777584 -48.794062 
lclavicle 0.000000 0.000000 
lhumerus -43.853608 39.817780 64.291263 
lradius 23.676388 
lwrist -65.113200 
lhand -19.774965 0.036900 
lfingers 0.000000 
lthumb 6.557088 29.915397 
rfemur -33.075969 2.249084 20.391630 
rtibia 27.631738 
rfoot -5.475842 -9.714821 
rtoes -25.326034 
lfemur 5.623809 -2.395813 -19.762328 
ltibia 23.254729 
lfoot -4.972084 -7.069873 
ltoes -40.815036 
21
root -8.093934 17.428685 -21.776876 7.070034 11.974404 0.553057
lowerback -14.395745 -2.375059 -4.863064 
upperback 1.141635 -2.374298 0.206231 
thorax 9.556628 -1.412705 2.436398 
lowerneck -8.248141 -2.413808 4.383302 
upperneck 5.465018 -3.543159 -2.490489 
head 3.097064 -1.762428 -1.773202 
rclavicle 0.000000 0.000000 
rhumerus -44.077976 -24.100507 -73.788488 
rradius 35.132233 
rwrist 27.835755 
rhand -19.719747 -18.929405 
rfingers 0.000000 
rthumb 6.610380 -48.806235 
lclavicle 0.000000 0.000000 
lhumerus -43.797718 40.455632 64.171046 
lradius 23.679394 
lwrist -65.395792 
lhand -20.179333 -0.045599 
lfingers 0.000000 
lthumb 6.166711 29.844626 
rfemur -32.824474 2.123050 20.651830 
rtibia 27.732564 
rfoot -5.739127 -9.187807 
rtoes -25.497023 
lfemur 4.774772 -1.591619 -19.527660 
ltibia 25.187111 
lfoot -3.997933 -6.986036 
ltoes -41.186461 
